<svg width="157" height="21" viewBox="0 0 157 21" fill="none" xmlns="http://www.w3.org/2000/svg">
<path d="M11.2759 20.5L6.58252 12.6778H4.81897V20.5H0.808299V0.418221H8.45985C10.7923 0.418221 12.5653 0.98711 13.779 2.12489C15.0116 3.26267 15.6279 4.76074 15.6279 6.61911C15.6279 8.13615 15.2012 9.40667 14.3479 10.4307C13.5135 11.4547 12.2999 12.1373 10.707 12.4787L15.7132 20.5H11.2759ZM4.81897 9.91867H8.11852C10.413 9.91867 11.5603 8.90415 11.5603 6.87511C11.5603 5.908 11.2759 5.15896 10.707 4.628C10.157 4.07807 9.29422 3.80311 8.11852 3.80311H4.81897V9.91867ZM33.1556 12.0236C33.1556 12.4218 33.1082 12.8769 33.0134 13.3889H21.465C21.5219 14.7921 21.9011 15.8256 22.6027 16.4893C23.3044 17.153 24.1767 17.4849 25.2196 17.4849C26.1488 17.4849 26.9168 17.2573 27.5236 16.8022C28.1494 16.3471 28.5476 15.7308 28.7183 14.9533H32.9565C32.7479 16.0532 32.3023 17.0393 31.6196 17.9116C30.937 18.7839 30.0552 19.4665 28.9743 19.9596C27.9124 20.4526 26.7272 20.6991 25.4187 20.6991C23.8827 20.6991 22.5174 20.3767 21.3227 19.732C20.1281 19.0683 19.1989 18.1296 18.5352 16.916C17.8715 15.7024 17.5396 14.2707 17.5396 12.6209C17.5396 10.9711 17.8715 9.53941 18.5352 8.32578C19.1989 7.09318 20.1281 6.15452 21.3227 5.50978C22.5174 4.86504 23.8827 4.54267 25.4187 4.54267C26.9737 4.54267 28.3296 4.86504 29.4863 5.50978C30.662 6.15452 31.5627 7.04578 32.1885 8.18355C32.8333 9.30237 33.1556 10.5824 33.1556 12.0236ZM29.1165 11.6253C29.1734 10.3359 28.8321 9.35926 28.0925 8.69555C27.3719 8.03185 26.4807 7.7 25.4187 7.7C24.3379 7.7 23.4276 8.03185 22.6881 8.69555C21.9485 9.35926 21.5408 10.3359 21.465 11.6253H29.1165ZM41.4356 4.54267C43.3509 4.54267 44.8869 5.02622 46.0436 5.99333C47.2004 6.96044 47.921 8.24993 48.2054 9.86178H44.4507C44.299 9.10326 43.9577 8.49644 43.4267 8.04133C42.8958 7.58622 42.2036 7.35867 41.3503 7.35867C40.6676 7.35867 40.1367 7.51985 39.7574 7.84222C39.3781 8.16459 39.1885 8.60074 39.1885 9.15067C39.1885 9.58681 39.3402 9.93763 39.6436 10.2031C39.947 10.4686 40.3263 10.6772 40.7814 10.8289C41.2365 10.9806 41.8907 11.1607 42.7441 11.3693C43.9387 11.6348 44.9059 11.9193 45.6454 12.2227C46.4039 12.5071 47.0487 12.9717 47.5796 13.6164C48.1296 14.2422 48.4045 15.0956 48.4045 16.1764C48.4045 17.5228 47.8736 18.6132 46.8116 19.4476C45.7687 20.2819 44.3559 20.6991 42.5734 20.6991C40.5254 20.6991 38.8851 20.244 37.6525 19.3338C36.4199 18.4046 35.6709 17.0867 35.4054 15.38H39.2454C39.3402 16.1575 39.6816 16.7738 40.2694 17.2289C40.8573 17.665 41.6253 17.8831 42.5734 17.8831C43.2561 17.8831 43.7776 17.7219 44.1379 17.3996C44.4981 17.0582 44.6783 16.6221 44.6783 16.0911C44.6783 15.636 44.5171 15.2662 44.1947 14.9818C43.8913 14.6973 43.5026 14.4793 43.0285 14.3276C42.5734 14.1759 41.9192 13.9957 41.0659 13.7871C39.8901 13.5216 38.9325 13.2561 38.193 12.9907C37.4724 12.7062 36.8466 12.2606 36.3156 11.6538C35.8036 11.047 35.5476 10.2126 35.5476 9.15067C35.5476 7.78533 36.0691 6.676 37.1121 5.82267C38.155 4.96933 39.5962 4.54267 41.4356 4.54267ZM59.8112 17.0582V20.5H57.7063C55.9427 20.5 54.5869 20.0733 53.6387 19.22C52.7096 18.3667 52.245 16.9444 52.245 14.9533V8.12667H50.0547V4.74178H52.245V0.844887H56.2556V4.74178H59.7827V8.12667H56.2556V15.0102C56.2556 15.7687 56.4073 16.2997 56.7107 16.6031C57.0142 16.9065 57.5262 17.0582 58.2467 17.0582H59.8112ZM68.8696 4.54267C70.197 4.54267 71.3348 4.85555 72.283 5.48133C73.2311 6.10711 73.9043 6.95096 74.3025 8.01289V4.74178H78.2847V20.5H74.3025V17.2004C73.9043 18.2624 73.2311 19.1157 72.283 19.7604C71.3348 20.3862 70.197 20.6991 68.8696 20.6991C67.5422 20.6991 66.3476 20.3767 65.2856 19.732C64.2237 19.0873 63.3893 18.1581 62.7825 16.9444C62.1947 15.7119 61.9007 14.2707 61.9007 12.6209C61.9007 10.9711 62.1947 9.53941 62.7825 8.32578C63.3893 7.09318 64.2237 6.15452 65.2856 5.50978C66.3476 4.86504 67.5422 4.54267 68.8696 4.54267ZM70.1212 8.04133C68.8696 8.04133 67.8646 8.44904 67.1061 9.26444C66.3476 10.0799 65.9683 11.1987 65.9683 12.6209C65.9683 14.0431 66.3476 15.1619 67.1061 15.9773C67.8646 16.7738 68.8696 17.172 70.1212 17.172C71.3348 17.172 72.3304 16.7643 73.1079 15.9489C73.9043 15.1145 74.3025 14.0052 74.3025 12.6209C74.3025 11.2176 73.9043 10.1083 73.1079 9.29289C72.3304 8.45852 71.3348 8.04133 70.1212 8.04133ZM96.995 4.74178V20.5H92.9843V17.3142C92.5671 18.3761 91.875 19.2105 90.9079 19.8173C89.9597 20.4052 88.8599 20.6991 87.6083 20.6991C85.7879 20.6991 84.3372 20.1018 83.2563 18.9071C82.1754 17.7124 81.635 16.0437 81.635 13.9009V4.74178H85.6172V13.4458C85.6172 14.6973 85.9396 15.6739 86.5843 16.3756C87.229 17.0582 88.1013 17.3996 89.2012 17.3996C90.3579 17.3996 91.2776 17.0298 91.9603 16.2902C92.643 15.5507 92.9843 14.4887 92.9843 13.1044V4.74178H96.995ZM103.486 8.04133C103.998 6.96044 104.747 6.12607 105.733 5.53822C106.719 4.93141 107.895 4.628 109.26 4.628V7.444H108.464C107.004 7.444 105.809 7.82326 104.88 8.58178C103.951 9.32133 103.486 10.5539 103.486 12.2796V20.5H100.898V4.884H103.486V8.04133ZM118.214 4.68489C119.731 4.68489 121.011 5.06415 122.054 5.82267C123.116 6.58118 123.856 7.5957 124.273 8.86622V4.884H126.861V20.5H124.273V16.5178C123.856 17.7883 123.116 18.8028 122.054 19.5613C121.011 20.3199 119.731 20.6991 118.214 20.6991C116.83 20.6991 115.597 20.3767 114.517 19.732C113.436 19.0873 112.582 18.1676 111.957 16.9729C111.35 15.7593 111.046 14.337 111.046 12.7062C111.046 11.0754 111.35 9.65318 111.957 8.43955C112.582 7.22592 113.436 6.29674 114.517 5.652C115.597 5.00726 116.83 4.68489 118.214 4.68489ZM118.954 6.98889C117.361 6.98889 116.081 7.50089 115.114 8.52489C114.166 9.52992 113.692 10.9237 113.692 12.7062C113.692 14.4887 114.166 15.892 115.114 16.916C116.081 17.921 117.361 18.4236 118.954 18.4236C119.978 18.4236 120.888 18.1865 121.685 17.7124C122.5 17.2384 123.135 16.5747 123.59 15.7213C124.045 14.849 124.273 13.844 124.273 12.7062C124.273 11.5684 124.045 10.5634 123.59 9.69111C123.135 8.81881 122.5 8.15511 121.685 7.7C120.888 7.22593 119.978 6.98889 118.954 6.98889ZM139.201 4.628C141.022 4.628 142.491 5.21585 143.61 6.39155C144.729 7.5483 145.289 9.22652 145.289 11.4262V20.5H142.7V11.6538C142.7 10.0988 142.302 8.90415 141.505 8.06978C140.709 7.23541 139.628 6.81822 138.263 6.81822C136.841 6.81822 135.703 7.28281 134.849 8.212C133.996 9.12222 133.569 10.4591 133.569 12.2227V20.5H130.981V4.884H133.569V8.58178C133.968 7.31126 134.669 6.33467 135.674 5.652C136.698 4.96933 137.874 4.628 139.201 4.628ZM156.711 18.2244V20.5H154.777C153.184 20.5 151.989 20.1207 151.193 19.3622C150.415 18.6037 150.027 17.3332 150.027 15.5507V7.13111H147.694V4.884H150.027V0.98711H152.644V4.884H156.683V7.13111H152.644V15.6076C152.644 16.6126 152.824 17.3047 153.184 17.684C153.563 18.0443 154.208 18.2244 155.118 18.2244H156.711Z" fill="white"/>
</svg>
